<svg xmlns="http://www.w3.org/2000/svg" width="783.379" height="756.821" viewBox="0 0 783.379 756.821">
  <g id="DrawKit_Vector_Illustration_Black_Friday_Online_Shopping_3_" data-name="DrawKit Vector Illustration Black Friday &amp; Online Shopping (3)" transform="translate(-67.791 -115.148)">
    <path id="Path_475" data-name="Path 475" d="M803.54,805.51,757.63,172.63c-3.45-47.51-57-73.47-96.47-46.73L136,482.1c-39.42,26.74-35.11,86.14,7.76,106.91l571,276.67C757.71,886.46,807,853,803.54,805.51Z" fill="#6dc8c2"/>
    <path id="Path_476" data-name="Path 476" d="M524.28,455c-34.65-1.14-63.6-27.7-68.49-62.85L443.51,304l46.18-6.44c3.48-.41,18.05-1.74,31.13,8.38,5.2,4,9.58,9.46,13.34,17.58,7.36,15.9,38.52,98.31,4.44,124.85A35.761,35.761,0,0,1,524.28,455Z"/>
    <path id="Path_477" data-name="Path 477" d="M672.32,866.86H394.82l-22.42-338a555.419,555.419,0,0,1,122.07-37.41c60-11,107.52-11.46,150.47-6.12C654.08,612.78,663.17,739.41,672.32,866.86Z"/>
    <path id="Path_478" data-name="Path 478" d="M521.72,451.68l-11-30.19c10.83-.44,19.49-9.85,19.49-21.43,0-11.87-9.07-21.48-20.27-21.48a19.53,19.53,0,0,0-13,5l-20.71-56.91L391.32,354A31.46,31.46,0,0,0,371,393.6l23,71.47a43,43,0,0,0,54.05,27.72l12.35-5.52,10.32,22.06a4.59,4.59,0,0,0,2.18,2.23c17.93,8.62,37.94,6.51,50.26-5,8.51-7.93,13.22-15.07,14.58-19.74a4.58,4.58,0,0,0-.33-3.27Z" fill="#fff"/>
    <path id="Path_479" data-name="Path 479" d="M460.42,487.31l37.22-17a1.18,1.18,0,0,1,1.35,1.87l-30.4,32.6Z"/>
    <path id="Path_480" data-name="Path 480" d="M508.24,408.94a7.27,7.27,0,1,1,7.26-7.27,7.27,7.27,0,0,1-7.26,7.27Zm0-10.53a3.27,3.27,0,1,0,3.26,3.26,3.27,3.27,0,0,0-3.26-3.26Z"/>
    <path id="Path_481" data-name="Path 481" d="M503.12,404.89a2,2,0,0,1-2-1.77c-.51-4.33.48-7.83,2.94-10.42,4.62-4.87,12.72-4.42,13.06-4.4a2,2,0,1,1-.25,4h0c-.06,0-6.6-.35-9.92,3.16-1.62,1.71-2.22,4.06-1.86,7.2a2,2,0,0,1-1.75,2.21Z"/>
    <path id="Path_482" data-name="Path 482" d="M429.43,460.9a16.31,16.31,0,0,1-7.45-1.7,2,2,0,0,1,2-3.46c.46.25,10.75,5.82,21.28-9.05a2,2,0,1,1,3.26,2.31C441.69,458.65,434.57,460.9,429.43,460.9Z"/>
    <circle id="Ellipse_41" data-name="Ellipse 41" cx="4.38" cy="4.38" r="4.38" transform="translate(437.33 398.6)"/>
    <circle id="Ellipse_42" data-name="Ellipse 42" cx="4.38" cy="4.38" r="4.38" transform="translate(386.06 417.15)"/>
    <path id="Path_483" data-name="Path 483" d="M389.33,445.51c-10.05,0-19.38-8.1-21.79-19.65-2.72-13,4.35-25.52,15.75-27.91a19.82,19.82,0,0,1,16.19,3.93,25.83,25.83,0,0,1,9.43,15.33h0a25.8,25.8,0,0,1-2.5,17.82,19.8,19.8,0,0,1-13.26,10.09A19,19,0,0,1,389.33,445.51Zm-2.19-44a14.863,14.863,0,0,0-3,.32c-9.25,1.93-14.93,12.33-12.66,23.17s11.64,18.09,20.88,16.16a15.81,15.81,0,0,0,10.58-8.12A21.76,21.76,0,0,0,405,418h0a21.74,21.74,0,0,0-7.93-13,16.36,16.36,0,0,0-9.93-3.45Z"/>
    <path id="Path_484" data-name="Path 484" d="M408.66,418a2,2,0,0,1-.61-3.9l18.06-5.82a2,2,0,0,1,1.22,3.8l-18.05,5.83a2.211,2.211,0,0,1-.62.09Z"/>
    <path id="Path_485" data-name="Path 485" d="M417.64,439.34a7,7,0,0,1-5.42-2.35c-2-2.43-1.66-5.76-.71-7.87a8.25,8.25,0,0,1,3.16-3.58l-8.23-22a2,2,0,0,1,3.74-1.4l9.6,25.59-2,.66a4.52,4.52,0,0,0-2.65,2.32c-.36.79-.79,2.57.12,3.65s3,1.4,4.94.15a2,2,0,1,1,2.19,3.34A8.74,8.74,0,0,1,417.64,439.34Z"/>
    <ellipse id="Ellipse_43" data-name="Ellipse 43" cx="46.82" cy="34.67" rx="46.82" ry="34.67" transform="translate(373.053 302.67) rotate(-11.81)"/>
    <path id="Path_486" data-name="Path 486" d="M510.28,361.11l-25.09,6.52a26.61,26.61,0,0,1-32.44-19.06l-5.29-20.36L498.3,315Z"/>
    <circle id="Ellipse_44" data-name="Ellipse 44" cx="34.24" cy="34.24" r="34.24" transform="translate(335.16 318.17)"/>
    <path id="Path_487" data-name="Path 487" d="M462.78,398.56a2,2,0,0,1-.74-3.86l37.44-15a2,2,0,1,1,1.48,3.71l-37.44,15a2.111,2.111,0,0,1-.74.15Z"/>
    <path id="Path_488" data-name="Path 488" d="M321.4,717.27l-8.75,116.86,3.07,28.67h78.83l-9.38-141.45Z" fill="#fff"/>
    <path id="Path_489" data-name="Path 489" d="M396.69,864.8H313.92l-3.27-30.64,8.91-119,67.49,4.31Zm-79.17-4h74.89l-9.12-137.57-60-3.84L314.66,834.1Z"/>
    <path id="Path_490" data-name="Path 490" d="M372.4,528.87a61.168,61.168,0,0,0-9.65,4.94c-22.9,14.44-30.44,41-36.24,66.91-6.16,27.55-15.23,90.93-18.41,140.15,24.84,1.58,53.84,3.17,78.68,4.76Z"/>
    <path id="Path_491" data-name="Path 491" d="M350.25,627.1H110.44a2,2,0,0,1,0-4H350.25a2,2,0,0,1,0,4Z"/>
    <path id="Path_492" data-name="Path 492" d="M232.29,626H132.77a7.58,7.58,0,0,1-7.57-7.56V604.29a7.58,7.58,0,0,1,7.57-7.57h99.52a7.58,7.58,0,0,1,7.57,7.57v14.16a7.58,7.58,0,0,1-7.57,7.55Zm-99.52-25.29a3.57,3.57,0,0,0-3.57,3.57v14.16a3.57,3.57,0,0,0,3.57,3.56h99.52a3.57,3.57,0,0,0,3.57-3.56V604.29a3.57,3.57,0,0,0-3.57-3.57Z"/>
    <rect id="Rectangle_77" data-name="Rectangle 77" width="110.65" height="25.29" rx="5.57" transform="translate(127.2 571.83)" fill="#ffbb45"/>
    <path id="Path_493" data-name="Path 493" d="M258.42,625.5H244.25a7.57,7.57,0,0,1-7.56-7.56V535.53a7.57,7.57,0,0,1,7.56-7.56h14.17a7.57,7.57,0,0,1,7.56,7.56v82.41a7.57,7.57,0,0,1-7.56,7.56ZM244.25,532a3.57,3.57,0,0,0-3.56,3.56v82.41a3.57,3.57,0,0,0,3.56,3.56h14.17a3.57,3.57,0,0,0,3.56-3.56V535.53a3.57,3.57,0,0,0-3.56-3.56Z"/>
    <rect id="Rectangle_78" data-name="Rectangle 78" width="25.29" height="93.54" rx="5.57" transform="translate(265.76 529.97)" fill="#ffc1eb"/>
    <path id="Path_494" data-name="Path 494" d="M495.22,541.51a70.12,70.12,0,0,1-37.38-11.22,2,2,0,0,1,2.18-3.35c6.21,4,23,13.12,44.23,9.89,29.27-4.44,43.77-28.21,46.38-32.93a2,2,0,1,1,3.5,1.93c-2.77,5-18.16,30.23-49.28,34.95a63.369,63.369,0,0,1-9.63.73Z" fill="#fff"/>
    <path id="Path_495" data-name="Path 495" d="M445,424.66c-10,0-19.19-7.78-21.52-18.91C420.87,393.16,428,381,439.42,378.6s22.83,5.91,25.46,18.5h0c2.63,12.59-4.51,24.77-15.92,27.15A18.829,18.829,0,0,1,445,424.66Zm-1.65-42.47a15.121,15.121,0,0,0-3.13.32c-9.25,1.94-15,12-12.82,22.42s11.47,17.34,20.72,15.41,15-12,12.82-22.42h0c-1.94-9.25-9.44-15.73-17.57-15.73Z"/>
    <rect id="Rectangle_81" data-name="Rectangle 81" width="126.38" height="121.36" rx="21.8" transform="translate(580.791 263.148)" fill="#fff"/>
    <path id="Path_501" data-name="Path 501" d="M630.45,677.6,384.78,706.05l-2.92-34.72L623.3,642.81Z" fill="#c7b8f8"/>
    <path id="Path_502" data-name="Path 502" d="M647.96,753.93,387.34,783.4l-2.51-37.54,254.92-29.74Z" fill="#c7b8f8"/>
    <path id="Path_503" data-name="Path 503" d="M468.92,633.9s-32.74,2.9-49.82-26.43a22.17,22.17,0,0,0-6.4-7c-4.49-3.16-11.21-5.14-18.15,2.79,0,0-11.28-14.93-19.61-6.4,0,0-5.94,7.53,2,20.22,0,0-12.69,5.27-.12,27.46,1.93,3.41,3.81,6.85,5.48,10.39,6.76,14.26,30.8,54.75,88.1,60.63a19.681,19.681,0,0,1,10.21,4.21L616.45,827.62a106.51,106.51,0,0,0,42.76,20.69c22.36,5,62.61,2.38,83.44-26.66a84.42,84.42,0,0,0,14.8-59.56l-6.31-51.3L638,729.33,523.79,657.72a25.43,25.43,0,0,1-9-9.77c-6.63-12.65-23.33-42-41.86-54.77-.64-.44-1.27-.87-1.89-1.33-4-3-9-5.48-14.05-5.56-8-.12-14.78,7.27-9.84,14.77,2.17,3.3,5.66,6,8.89,8.22a29.75,29.75,0,0,1,12.64,19.88,23.758,23.758,0,0,1,.24,4.74Z" fill="#fff"/>
    <path id="Path_504" data-name="Path 504" d="M433.4,654.74a2,2,0,0,1-.88-.21,73,73,0,0,1-14.85-9.62c-15.39-12.91-22.12-29.52-25.06-41.18a2,2,0,1,1,3.88-1c2.79,11.09,9.18,26.87,23.75,39.1a68.79,68.79,0,0,0,14,9.09,2,2,0,0,1-.88,3.8Z"/>
    <path id="Path_505" data-name="Path 505" d="M420.56,671.64a1.881,1.881,0,0,1-.89-.21,31,31,0,0,1-7.42-4.7c-.77-.62-1.74-1.39-3-2.41-15-11.61-26.78-27.7-34.14-46.53a2,2,0,1,1,3.72-1.46c7.11,18.16,18.47,33.66,32.87,44.83,1.33,1,2.31,1.82,3.09,2.45a27.2,27.2,0,0,0,6.71,4.25,2,2,0,0,1-.9,3.78Z"/>
    <path id="Path_506" data-name="Path 506" d="M478.94,866.82H310.8V830.53H478.94a8.44,8.44,0,0,1,8.43,8.43V858.4A8.43,8.43,0,0,1,478.94,866.82Z"/>
    <path id="Path_507" data-name="Path 507" d="M329.74,866.82H133.05a17,17,0,0,1-16.42-12L68.46,691.52c-3.12-10.58,5.07-21.12,16.42-21.12H270.4a17,17,0,0,1,16.66,12.92Z"/>
    <circle id="Ellipse_45" data-name="Ellipse 45" cx="27.26" cy="27.26" r="27.26" transform="translate(159.63 756.84)" fill="#ffc1eb"/>
    <path id="Path_508" data-name="Path 508" d="M180.9,764.65a2,2,0,0,1-1.94-1.53l-3.26-13.35a2,2,0,1,1,3.89-.95l3.25,13.35a2,2,0,0,1-1.94,2.48Z" fill="#6dc8c2"/>
    <path id="Path_509" data-name="Path 509" d="M773.37,709.41l-132.9,22.24-48.8-249.3,34.64.49A100.56,100.56,0,0,1,685.85,503a90.349,90.349,0,0,1,22.46,24.69A89.23,89.23,0,0,1,718,549.94Z"/>
    <rect id="Rectangle_83" data-name="Rectangle 83" width="182.11" height="129.41" rx="17.92" transform="translate(666.791 421.148)" fill="#fff"/>
    <path id="Path_510" data-name="Path 510" d="M831.24,552.94H685A20,20,0,0,1,665.05,533V439.46A20,20,0,0,1,685,419.53H831.24a20,20,0,0,1,19.93,19.93V533A20,20,0,0,1,831.24,552.94ZM685,423.53a16,16,0,0,0-15.92,15.93V533A15.94,15.94,0,0,0,685,548.94H831.24A15.94,15.94,0,0,0,847.17,533V439.46a16,16,0,0,0-15.93-15.93Z"/>
    <path id="Path_515" data-name="Path 515" d="M669.49,748.15a1.94,1.94,0,0,1-1-.25l-29.75-16.42a2,2,0,0,1,1.93-3.5l29.75,16.42a2,2,0,0,1-1,3.75Z"/>
    <path id="Path_516" data-name="Path 516" d="M350.25,491.6H110.44a2,2,0,0,1,0-4H350.25a2,2,0,0,1,0,4Z"/>
    <circle id="Ellipse_46" data-name="Ellipse 46" cx="35.53" cy="35.53" r="35.53" transform="translate(240.99 415.65)" fill="#fff"/>
    <path id="Path_517" data-name="Path 517" d="M204.08,490.07H153a17.83,17.83,0,0,1-17.81-17.81V398.83A17.83,17.83,0,0,1,153,381h51.11a17.83,17.83,0,0,1,17.81,17.81v73.43A17.83,17.83,0,0,1,204.08,490.07ZM153,385a13.83,13.83,0,0,0-13.81,13.81v73.43A13.82,13.82,0,0,0,153,486.07h51.11a13.83,13.83,0,0,0,13.81-13.81V398.83A13.83,13.83,0,0,0,204.08,385Z"/>
    <path id="Path_518" data-name="Path 518" d="M218.83,463.69H137.16a2,2,0,0,1,0-4h81.67a2,2,0,1,1,0,4Z"/>
    <circle id="Ellipse_47" data-name="Ellipse 47" cx="4.85" cy="4.85" r="4.85" transform="translate(165.15 470.82)" fill="#fff"/>
    <circle id="Ellipse_48" data-name="Ellipse 48" cx="4.85" cy="4.85" r="4.85" transform="translate(182.17 470.82)" fill="#fff"/>
    <path id="Path_519" data-name="Path 519" d="M269.07,424.94a2,2,0,0,1-1.95-1.58c-5.2-24,.67-40.42,6.51-50,6.38-10.41,14-15.06,14.29-15.25a2,2,0,1,1,2.06,3.43c-1.2.73-28.3,17.78-19,60.94a2,2,0,0,1-1.53,2.37A2.182,2.182,0,0,1,269.07,424.94Z"/>
    <path id="Path_520" data-name="Path 520" d="M314,361l-8.61-1.87a13.591,13.591,0,0,0-.27-1.41l7.52-4.22A6.81,6.81,0,0,0,306,341.66l-7.91,4.44c-.13.07-.23.16-.35.24-.38-.28-.77-.55-1.17-.8l1.74-8.05a6.8,6.8,0,0,0-13.3-2.87l-1.74,8a18.527,18.527,0,0,0-2,.38,9,9,0,0,0-.47-.78L275.34,335a6.8,6.8,0,0,0-10.86,8.19l5.46,7.25c0,.06.1.1.15.16-.19.26-.35.53-.53.79l-8.33-1.8a6.81,6.81,0,0,0-8.09,5.21h0a6.8,6.8,0,0,0,5.21,8.09l8.26,1.79a4.113,4.113,0,0,0,.08.6h-.07l-7.92,4.44a6.81,6.81,0,0,0,6.66,11.87l7.92-4.44c.06,0,.1-.08.16-.11a19.937,19.937,0,0,0,2,1.47l-1.73,8a6.81,6.81,0,1,0,13.31,2.87l1.72-8c.5-.07,1-.16,1.49-.27l5.29,7A6.81,6.81,0,1,0,306.43,380l-4.7-6.25c.3-.41.59-.83.86-1.27l8.53,1.85a6.8,6.8,0,0,0,8.09-5.21h0A6.8,6.8,0,0,0,314,361Z" fill="#ffc1eb"/>
    <path id="Path_521" data-name="Path 521" d="M314,361l-8.61-1.87a13.591,13.591,0,0,0-.27-1.41l7.52-4.22A6.81,6.81,0,0,0,306,341.66l-7.91,4.44c-.13.07-.23.16-.35.24-.38-.28-.77-.55-1.17-.8l1.74-8.05a6.8,6.8,0,0,0-13.3-2.87l-1.74,8a18.527,18.527,0,0,0-2,.38,9,9,0,0,0-.47-.78L275.34,335a6.8,6.8,0,0,0-10.86,8.19l5.46,7.25c0,.06.1.1.15.16-.19.26-.35.53-.53.79l-8.33-1.8a6.81,6.81,0,0,0-8.09,5.21h0a6.8,6.8,0,0,0,5.21,8.09l8.26,1.79a4.113,4.113,0,0,0,.08.6h-.07l-7.92,4.44a6.81,6.81,0,0,0,6.66,11.87l7.92-4.44c.06,0,.1-.08.16-.11a19.937,19.937,0,0,0,2,1.47l-1.73,8a6.81,6.81,0,1,0,13.31,2.87l1.72-8c.5-.07,1-.16,1.49-.27l5.29,7A6.81,6.81,0,1,0,306.43,380l-4.7-6.25c.3-.41.59-.83.86-1.27l8.53,1.85a6.8,6.8,0,0,0,8.09-5.21h0A6.8,6.8,0,0,0,314,361Z" fill="#ffc1eb"/>
    <path id="Path_522" data-name="Path 522" d="M314,361l-8.61-1.87a13.591,13.591,0,0,0-.27-1.41l7.52-4.22A6.81,6.81,0,0,0,306,341.66l-7.91,4.44c-.13.07-.23.16-.35.24-.38-.28-.77-.55-1.17-.8l1.74-8.05a6.8,6.8,0,0,0-13.3-2.87l-1.74,8a18.527,18.527,0,0,0-2,.38,9,9,0,0,0-.47-.78L275.34,335a6.8,6.8,0,0,0-10.86,8.19l5.46,7.25c0,.06.1.1.15.16-.19.26-.35.53-.53.79l-8.33-1.8a6.81,6.81,0,0,0-8.09,5.21h0a6.8,6.8,0,0,0,5.21,8.09l8.26,1.79a4.113,4.113,0,0,0,.08.6h-.07l-7.92,4.44a6.81,6.81,0,0,0,6.66,11.87l7.92-4.44c.06,0,.1-.08.16-.11a19.937,19.937,0,0,0,2,1.47l-1.73,8a6.81,6.81,0,1,0,13.31,2.87l1.72-8c.5-.07,1-.16,1.49-.27l5.29,7A6.81,6.81,0,1,0,306.43,380l-4.7-6.25c.3-.41.59-.83.86-1.27l8.53,1.85a6.8,6.8,0,0,0,8.09-5.21h0A6.8,6.8,0,0,0,314,361Z" fill="#ffc1eb"/>
    <path id="Path_523" data-name="Path 523" d="M314,361l-8.61-1.87a13.591,13.591,0,0,0-.27-1.41l7.52-4.22A6.81,6.81,0,0,0,306,341.66l-7.91,4.44c-.13.07-.23.16-.35.24-.38-.28-.77-.55-1.17-.8l1.74-8.05a6.8,6.8,0,0,0-13.3-2.87l-1.74,8a18.527,18.527,0,0,0-2,.38,9,9,0,0,0-.47-.78L275.34,335a6.8,6.8,0,0,0-10.86,8.19l5.46,7.25c0,.06.1.1.15.16-.19.26-.35.53-.53.79l-8.33-1.8a6.81,6.81,0,0,0-8.09,5.21h0a6.8,6.8,0,0,0,5.21,8.09l8.26,1.79a4.113,4.113,0,0,0,.08.6h-.07l-7.92,4.44a6.81,6.81,0,0,0,6.66,11.87l7.92-4.44c.06,0,.1-.08.16-.11a19.937,19.937,0,0,0,2,1.47l-1.73,8a6.81,6.81,0,1,0,13.31,2.87l1.72-8c.5-.07,1-.16,1.49-.27l5.29,7A6.81,6.81,0,1,0,306.43,380l-4.7-6.25c.3-.41.59-.83.86-1.27l8.53,1.85a6.8,6.8,0,0,0,8.09-5.21h0A6.8,6.8,0,0,0,314,361Z" fill="#ffc1eb"/>
    <path id="Path_524" data-name="Path 524" d="M314,361l-8.61-1.87a13.591,13.591,0,0,0-.27-1.41l7.52-4.22A6.81,6.81,0,0,0,306,341.66l-7.91,4.44c-.13.07-.23.16-.35.24-.38-.28-.77-.55-1.17-.8l1.74-8.05a6.8,6.8,0,0,0-13.3-2.87l-1.74,8a18.527,18.527,0,0,0-2,.38,9,9,0,0,0-.47-.78L275.34,335a6.8,6.8,0,0,0-10.86,8.19l5.46,7.25c0,.06.1.1.15.16-.19.26-.35.53-.53.79l-8.33-1.8a6.81,6.81,0,0,0-8.09,5.21h0a6.8,6.8,0,0,0,5.21,8.09l8.26,1.79a4.113,4.113,0,0,0,.08.6h-.07l-7.92,4.44a6.81,6.81,0,0,0,6.66,11.87l7.92-4.44c.06,0,.1-.08.16-.11a19.937,19.937,0,0,0,2,1.47l-1.73,8a6.81,6.81,0,1,0,13.31,2.87l1.72-8c.5-.07,1-.16,1.49-.27l5.29,7A6.81,6.81,0,1,0,306.43,380l-4.7-6.25c.3-.41.59-.83.86-1.27l8.53,1.85a6.8,6.8,0,0,0,8.09-5.21h0A6.8,6.8,0,0,0,314,361Z" fill="#ffc1eb"/>
    <path id="Path_525" data-name="Path 525" d="M314,361l-8.61-1.87a13.591,13.591,0,0,0-.27-1.41l7.52-4.22A6.81,6.81,0,0,0,306,341.66l-7.91,4.44c-.13.07-.23.16-.35.24-.38-.28-.77-.55-1.17-.8l1.74-8.05a6.8,6.8,0,0,0-13.3-2.87l-1.74,8a18.527,18.527,0,0,0-2,.38,9,9,0,0,0-.47-.78L275.34,335a6.8,6.8,0,0,0-10.86,8.19l5.46,7.25c0,.06.1.1.15.16-.19.26-.35.53-.53.79l-8.33-1.8a6.81,6.81,0,0,0-8.09,5.21h0a6.8,6.8,0,0,0,5.21,8.09l8.26,1.79a4.113,4.113,0,0,0,.08.6h-.07l-7.92,4.44a6.81,6.81,0,0,0,6.66,11.87l7.92-4.44c.06,0,.1-.08.16-.11a19.937,19.937,0,0,0,2,1.47l-1.73,8a6.81,6.81,0,1,0,13.31,2.87l1.72-8c.5-.07,1-.16,1.49-.27l5.29,7A6.81,6.81,0,1,0,306.43,380l-4.7-6.25c.3-.41.59-.83.86-1.27l8.53,1.85a6.8,6.8,0,0,0,8.09-5.21h0A6.8,6.8,0,0,0,314,361Z" fill="#ffc1eb"/>
    <path id="Path_526" data-name="Path 526" d="M314,361l-8.61-1.87a13.591,13.591,0,0,0-.27-1.41l7.52-4.22A6.81,6.81,0,0,0,306,341.66l-7.91,4.44c-.13.07-.23.16-.35.24-.38-.28-.77-.55-1.17-.8l1.74-8.05a6.8,6.8,0,0,0-13.3-2.87l-1.74,8a18.527,18.527,0,0,0-2,.38,9,9,0,0,0-.47-.78L275.34,335a6.8,6.8,0,0,0-10.86,8.19l5.46,7.25c0,.06.1.1.15.16-.19.26-.35.53-.53.79l-8.33-1.8a6.81,6.81,0,0,0-8.09,5.21h0a6.8,6.8,0,0,0,5.21,8.09l8.26,1.79a4.113,4.113,0,0,0,.08.6h-.07l-7.92,4.44a6.81,6.81,0,0,0,6.66,11.87l7.92-4.44c.06,0,.1-.08.16-.11a19.937,19.937,0,0,0,2,1.47l-1.73,8a6.81,6.81,0,1,0,13.31,2.87l1.72-8c.5-.07,1-.16,1.49-.27l5.29,7A6.81,6.81,0,1,0,306.43,380l-4.7-6.25c.3-.41.59-.83.86-1.27l8.53,1.85a6.8,6.8,0,0,0,8.09-5.21h0A6.8,6.8,0,0,0,314,361Z" fill="#ffc1eb"/>
    <circle id="Ellipse_49" data-name="Ellipse 49" cx="9.01" cy="9.01" r="9.01" transform="translate(277.17 353.01)" fill="#fff"/>
    <ellipse id="Ellipse_50" data-name="Ellipse 50" cx="8.75" cy="7.14" rx="8.75" ry="7.14" transform="translate(259.851 420.257) rotate(-9.68)"/>
    <path id="Path_527" data-name="Path 527" d="M258.93,480.67a2,2,0,0,1-1.06-3.69,35.89,35.89,0,0,1,16.78-5.42,36.32,36.32,0,0,1,21,5.29,2,2,0,1,1-2.09,3.41,32.33,32.33,0,0,0-18.67-4.7A31.84,31.84,0,0,0,260,480.37a2.05,2.05,0,0,1-1.07.3Z"/>
    <path id="Path_528" data-name="Path 528" d="M695.765,522.153l32.664-32.664L738.7,499.76l31.917-31.917,26.742,26.742L827.844,464.1" transform="translate(-3.473 -6.452)" fill="none" stroke="#6dc8c2" stroke-linecap="round" stroke-linejoin="round" stroke-width="5"/>
    <g id="surface1" transform="translate(544.092 283.3)">
      <path id="Path_529" data-name="Path 529" d="M98.91,55.456V30.669L74.7,41.274Zm0-26.492V-.14L75.479,39.228Zm1.56-29.117V28.964l23.76,10.408Zm0,30.821V55.457L124.7,41.281ZM98.91,80.379V60.442L74.862,46.362Zm1.56,0,24.049-34.017-24.049,14.08Zm0,0" transform="translate(0 0)"/>
    </g>
  </g>
</svg>
