<svg width="0" height="0" class="hidden">
    <symbol xmlns="http://www.w3.org/2000/svg" xmlns:xlink="http://www.w3.org/1999/xlink" viewBox="0 0 384 384" id="coin-ETH">
        <path fill="#313131" d="M 190.398438 265.585938 L 190.398438 147.132812 L 74.699219 197.8125 Z M 190.398438 138.988281 L 190.398438 -0.09375 L 78.425781 188.035156 Z M 197.855469 -0.152344 L 197.855469 138.988281 L 311.398438 188.726562 Z M 197.855469 147.132812 L 197.855469 265.589844 L 313.636719 197.847656 Z M 190.398438 384.6875 L 190.398438 289.414062 L 75.476562 222.128906 Z M 197.855469 384.6875 L 312.777344 222.128906 L 197.855469 289.414062 Z M 197.855469 384.6875 "/>
    </symbol>
    <symbol xmlns="http://www.w3.org/2000/svg" xmlns:xlink="http://www.w3.org/1999/xlink" viewBox="0 0 384 384" id="coin-USDT">
        <path fill="#41924B" d="M 383.800781 182.121094 C 383.800781 158.023438 318.234375 137.917969 231.097656 133.28125 L 231.09375 94.886719 L 339.890625 94.886719 L 339.890625 14.980469 L 42.390625 14.980469 L 42.390625 94.886719 L 151.179688 94.886719 L 151.179688 133.46875 C 65.632812 138.425781 1.640625 158.320312 1.640625 182.121094 C 1.640625 205.925781 65.632812 225.824219 151.179688 230.769531 L 151.179688 368.644531 L 231.09375 368.644531 L 231.09375 230.957031 C 318.234375 226.328125 383.800781 206.21875 383.800781 182.121094 Z M 192.71875 205.859375 C 99.195312 205.859375 23.375 191.382812 23.375 173.515625 C 23.375 158.390625 77.742188 145.6875 151.179688 142.15625 L 151.179688 151.261719 L 151.1875 151.261719 L 151.1875 188.574219 C 164.429688 189.320312 178.34375 189.707031 192.71875 189.707031 C 205.957031 189.707031 218.8125 189.371094 231.101562 188.753906 L 231.101562 142.015625 C 306.132812 145.332031 362.070312 158.167969 362.070312 173.515625 C 362.070312 191.382812 286.246094 205.859375 192.71875 205.859375 Z M 192.71875 205.859375 "/>        
    </symbol>
    <symbol xmlns="http://www.w3.org/2000/svg" xmlns:xlink="http://www.w3.org/1999/xlink" viewBox="0 0 384 384" id="coin-BTC">
        <path fill="#f69e53" d="M 309.535156 190.90625 C 297.1875 181.605469 279.597656 177.886719 279.597656 177.886719 C 279.597656 177.886719 294.480469 169.257812 300.566406 160.632812 C 306.65625 152.007812 309.699219 138.644531 310.207031 131.710938 C 310.714844 124.773438 311.898438 95.683594 289.234375 78.941406 C 271.699219 65.988281 251.609375 60.847656 224.628906 59.171875 L 224.628906 0.46875 L 188.4375 0.46875 L 188.4375 58.480469 L 160.867188 58.480469 L 160.867188 0.46875 L 124.675781 0.46875 L 124.675781 58.480469 L 53.472656 58.480469 L 53.472656 96.066406 L 74.402344 96.066406 C 80.105469 96.066406 90.253906 96.699219 94.566406 101.527344 C 98.878906 106.34375 99.640625 108.882812 99.640625 118.265625 L 99.644531 268.035156 C 99.644531 271.585938 98.96875 275.980469 95.921875 278.855469 C 92.878906 281.734375 89.835938 282.40625 82.558594 282.40625 L 60.914062 282.40625 L 53.472656 325.878906 L 124.675781 325.878906 L 124.675781 383.722656 L 160.867188 383.722656 L 160.867188 325.878906 L 188.4375 325.878906 L 188.4375 383.722656 L 224.632812 383.722656 L 224.632812 324.921875 C 233.988281 324.375 242.710938 323.667969 247.800781 323 C 258.117188 321.652344 281.457031 318.945312 303.277344 303.722656 C 325.09375 288.496094 329.996094 264.648438 330.503906 240.632812 C 331.019531 216.617188 321.875 200.210938 309.535156 190.90625 Z M 160.867188 99.410156 C 160.867188 99.410156 172.367188 98.398438 183.699219 98.5625 C 195.035156 98.730469 205.007812 99.070312 219.898438 103.636719 C 234.777344 108.207031 243.566406 119.371094 243.910156 132.5625 C 244.246094 145.757812 238.492188 154.546875 228.347656 160.128906 C 218.203125 165.710938 204.171875 168.753906 190.972656 169.257812 C 177.785156 169.765625 160.867188 169.257812 160.867188 169.257812 Z M 241.878906 272.429688 C 233.59375 276.996094 217.015625 281.054688 200.953125 282.238281 C 184.882812 283.421875 160.867188 282.914062 160.867188 282.914062 L 160.867188 205.28125 C 160.867188 205.28125 183.871094 204.101562 201.800781 205.28125 C 219.726562 206.46875 234.777344 211.03125 241.539062 214.421875 C 248.304688 217.800781 260.148438 225.242188 260.148438 243.003906 C 260.148438 260.757812 250.160156 267.863281 241.878906 272.429688 Z M 241.878906 272.429688 "/>
    </symbol>
    <symbol xmlns="http://www.w3.org/2000/svg" xmlns:xlink="http://www.w3.org/1999/xlink" viewBox="0 0 384 384" id="coin-BNB">
        <path fill="#f69e53" d="M 117.511719 159.609375 L 191.277344 85.847656 L 265.078125 159.648438 L 308 116.726562 L 191.277344 0 L 74.59375 116.6875 Z M 44.28125 146.992188 L 87.199219 189.910156 L 44.28125 232.828125 L 1.359375 189.910156 Z M 117.511719 220.222656 L 191.277344 293.984375 L 265.078125 220.1875 L 308.023438 263.085938 L 191.277344 379.832031 L 74.589844 263.148438 L 74.527344 263.089844 Z M 381.199219 189.929688 L 338.28125 232.851562 L 295.355469 189.933594 L 338.277344 147.007812 Z M 381.199219 189.929688 "/>
        <path fill="#f69e53" d="M 234.8125 189.894531 L 234.832031 189.894531 L 191.277344 146.339844 L 159.089844 178.527344 L 159.085938 178.527344 L 155.390625 182.226562 L 147.703125 189.914062 L 147.761719 189.976562 L 191.277344 233.492188 L 234.832031 189.9375 L 234.851562 189.914062 Z M 234.8125 189.894531 "/>
    </symbol>
    <symbol xmlns="http://www.w3.org/2000/svg" xmlns:xlink="http://www.w3.org/1999/xlink" viewBox="0 0 512 445" id="coin-XRP">
        <path fill="#313131" d="M437 0h74.054L356.986 159.802c-55.77 57.846-146.191 57.846-201.962 0L.958 0H75.01l117.04 121.397c35.322 36.636 92.587 36.636 127.91 0L437 0zM74.053 444.378H0l155.019-160.79c55.77-57.845 146.192-57.845 201.963 0L512 444.379h-74.054L319.954 321.992c-35.323-36.636-92.588-36.636-127.909 0L74.053 444.378z"/>
    </symbol>
    <symbol xmlns="http://www.w3.org/2000/svg" xmlns:xlink="http://www.w3.org/1999/xlink" viewBox="0 0 384 384" id="coin-ADA">
        <path fill="#0033AD" d="M 165.257812 167.8125 C 156.40625 167.8125 148.429688 162.90625 144.457031 155.007812 C 138.691406 143.539062 143.308594 129.515625 154.765625 123.734375 C 158.011719 122.105469 161.589844 121.253906 165.21875 121.246094 C 174.023438 121.21875 182.082031 126.175781 186.03125 134.039062 C 191.808594 145.511719 187.175781 159.542969 175.71875 165.308594 C 172.476562 166.949219 168.894531 167.808594 165.257812 167.8125 M 137.949219 215.410156 C 137.492188 215.410156 137.050781 215.394531 136.597656 215.378906 C 123.804688 214.632812 113.964844 203.609375 114.695312 190.796875 C 115.417969 178.03125 126.359375 168.113281 139.253906 168.871094 C 152.058594 169.582031 161.882812 180.621094 161.160156 193.433594 C 160.457031 205.769531 150.246094 215.410156 137.949219 215.410156 M 165.433594 262.859375 C 160.902344 262.863281 156.472656 261.539062 152.6875 259.050781 C 147.515625 255.675781 143.910156 250.375 142.667969 244.328125 C 141.394531 238.246094 142.582031 232.023438 145.980469 226.816406 C 150.285156 220.246094 157.609375 216.289062 165.464844 216.296875 C 169.996094 216.296875 174.414062 217.625 178.210938 220.113281 C 183.390625 223.484375 187.003906 228.789062 188.238281 234.84375 C 189.519531 240.925781 188.332031 247.140625 184.914062 252.347656 C 180.621094 258.925781 173.289062 262.878906 165.433594 262.859375 M 220.316406 262.75 C 211.519531 262.773438 203.464844 257.8125 199.53125 249.945312 C 196.726562 244.398438 196.265625 238.089844 198.210938 232.175781 C 200.148438 226.265625 204.296875 221.480469 209.839844 218.675781 C 213.082031 217.035156 216.667969 216.179688 220.300781 216.179688 C 229.105469 216.148438 237.164062 221.117188 241.09375 228.992188 C 246.859375 240.453125 242.242188 254.476562 230.785156 260.261719 C 227.535156 261.890625 223.953125 262.746094 220.316406 262.75 M 247.660156 215.171875 C 247.195312 215.171875 246.757812 215.144531 246.316406 215.128906 C 233.492188 214.402344 223.667969 203.363281 224.398438 190.566406 C 225.121094 177.792969 236.070312 167.878906 248.964844 168.632812 C 255.128906 168.964844 260.902344 171.75 265 176.371094 C 269.125 180.972656 271.234375 187.03125 270.855469 193.199219 C 270.164062 205.527344 259.964844 215.171875 247.660156 215.171875 M 220.082031 167.707031 C 215.566406 167.707031 211.152344 166.394531 207.34375 163.886719 C 196.601562 156.839844 193.609375 142.386719 200.644531 131.648438 C 204.945312 125.082031 212.269531 121.128906 220.121094 121.136719 C 224.652344 121.136719 229.066406 122.457031 232.859375 124.945312 C 243.59375 131.976562 246.601562 146.4375 239.5625 157.179688 C 235.238281 163.753906 227.964844 167.707031 220.082031 167.707031 M 141.957031 81.269531 C 144.855469 87.003906 142.539062 94.011719 136.816406 96.886719 C 131.085938 99.78125 124.09375 97.480469 121.203125 91.75 C 118.308594 86.011719 120.609375 79.015625 126.347656 76.117188 C 132.070312 73.242188 139.074219 75.535156 141.957031 81.269531 M 71.519531 180.648438 C 77.933594 181.011719 82.832031 186.511719 82.472656 192.921875 C 82.113281 199.339844 76.605469 204.242188 70.199219 203.886719 C 63.789062 203.511719 58.898438 198.019531 59.25 191.601562 C 59.613281 185.199219 65.109375 180.289062 71.519531 180.648438 M 122.324219 291.375 C 124.011719 288.792969 126.65625 286.992188 129.675781 286.363281 C 132.695312 285.734375 135.839844 286.335938 138.417969 288.027344 C 143.789062 291.539062 145.289062 298.753906 141.761719 304.132812 C 138.246094 309.507812 131.035156 311 125.664062 307.488281 C 120.296875 303.957031 118.804688 296.75 122.324219 291.375 M 243.589844 302.71875 C 240.691406 296.992188 243.007812 290 248.722656 287.109375 C 254.480469 284.21875 261.460938 286.527344 264.34375 292.246094 C 267.242188 297.984375 264.925781 304.988281 259.191406 307.863281 C 256.441406 309.257812 253.25 309.496094 250.324219 308.53125 C 247.394531 307.566406 244.972656 305.476562 243.589844 302.71875 M 314.019531 203.339844 C 307.597656 202.976562 302.714844 197.476562 303.074219 191.066406 C 303.242188 187.984375 304.632812 185.097656 306.933594 183.042969 C 309.234375 180.988281 312.261719 179.929688 315.339844 180.109375 C 321.75 180.460938 326.664062 185.960938 326.304688 192.386719 C 325.949219 198.804688 320.429688 203.699219 314.019531 203.339844 M 263.230469 92.613281 C 260.964844 96.121094 256.996094 98.140625 252.828125 97.914062 C 248.664062 97.6875 244.9375 95.242188 243.070312 91.511719 C 241.199219 87.78125 241.472656 83.335938 243.785156 79.863281 C 245.472656 77.28125 248.117188 75.480469 251.136719 74.847656 C 254.152344 74.21875 257.296875 74.816406 259.875 76.507812 C 265.238281 80.035156 266.746094 87.238281 263.230469 92.613281 M 116.53125 45.589844 C 118.402344 49.300781 116.914062 53.828125 113.203125 55.699219 C 111.417969 56.597656 109.351562 56.753906 107.457031 56.125 C 105.558594 55.5 103.992188 54.144531 103.09375 52.359375 C 101.226562 48.652344 102.71875 44.128906 106.425781 42.257812 C 110.136719 40.390625 114.65625 41.882812 116.53125 45.589844 M 27.914062 184.847656 C 29.90625 184.957031 31.769531 185.855469 33.097656 187.34375 C 34.429688 188.835938 35.109375 190.789062 34.996094 192.78125 C 34.753906 196.929688 31.203125 200.121094 27.0625 199.859375 C 25.074219 199.753906 23.207031 198.855469 21.875 197.367188 C 20.546875 195.882812 19.867188 193.925781 19.980469 191.933594 C 20.21875 187.789062 23.765625 184.617188 27.914062 184.847656 M 104.15625 331.253906 C 105.25 329.582031 106.964844 328.414062 108.921875 328.007812 C 110.878906 327.601562 112.917969 327.992188 114.585938 329.09375 C 118.058594 331.378906 119.023438 336.046875 116.734375 339.519531 C 114.457031 342.992188 109.796875 343.960938 106.320312 341.6875 C 102.847656 339.402344 101.875 334.734375 104.15625 331.253906 M 269.019531 338.417969 C 267.148438 334.6875 268.640625 330.164062 272.355469 328.300781 C 274.136719 327.398438 276.199219 327.246094 278.09375 327.871094 C 279.988281 328.496094 281.554688 329.847656 282.449219 331.632812 C 283.347656 333.410156 283.503906 335.476562 282.882812 337.371094 C 282.257812 339.265625 280.90625 340.835938 279.125 341.734375 C 275.417969 343.605469 270.894531 342.125 269.019531 338.417969 M 357.628906 199.160156 C 353.476562 198.921875 350.300781 195.363281 350.539062 191.210938 C 350.648438 189.214844 351.550781 187.34375 353.042969 186.015625 C 354.539062 184.683594 356.5 184.003906 358.496094 184.125 C 362.632812 184.34375 365.8125 187.917969 365.550781 192.066406 C 365.332031 196.207031 361.769531 199.378906 357.628906 199.160156 M 281.402344 52.738281 C 279.109375 56.21875 274.445312 57.191406 270.980469 54.90625 C 267.507812 52.621094 266.539062 47.957031 268.816406 44.480469 C 269.90625 42.8125 271.621094 41.644531 273.574219 41.242188 C 275.527344 40.839844 277.5625 41.230469 279.226562 42.328125 C 282.699219 44.601562 283.671875 49.261719 281.402344 52.738281 M 118.808594 133.75 C 125.121094 137.882812 126.890625 146.367188 122.742188 152.683594 C 120.757812 155.722656 117.644531 157.847656 114.089844 158.585938 C 110.535156 159.324219 106.835938 158.617188 103.804688 156.621094 C 97.480469 152.488281 95.722656 144.007812 99.867188 137.679688 C 104.015625 131.371094 112.496094 129.59375 118.808594 133.75 M 105.355469 226.953125 C 112.101562 223.546875 120.332031 226.273438 123.734375 233.011719 C 127.125 239.761719 124.414062 247.996094 117.667969 251.398438 C 110.933594 254.796875 102.695312 252.074219 99.300781 245.339844 C 95.902344 238.589844 98.609375 230.355469 105.355469 226.957031 M 178.332031 285.210938 C 178.765625 277.667969 185.238281 271.902344 192.765625 272.316406 C 200.320312 272.742188 206.085938 279.222656 205.652344 286.753906 C 205.449219 290.382812 203.816406 293.777344 201.105469 296.195312 C 198.398438 298.617188 194.835938 299.855469 191.210938 299.648438 C 183.671875 299.21875 177.910156 292.753906 178.335938 285.210938 M 266.75 250.265625 C 260.4375 246.109375 258.667969 237.632812 262.800781 231.308594 C 266.945312 225 275.425781 223.242188 281.730469 227.378906 C 288.054688 231.511719 289.8125 239.996094 285.675781 246.3125 C 281.535156 252.644531 273.054688 254.398438 266.75 250.265625 M 280.191406 157.046875 C 273.449219 160.445312 265.214844 157.738281 261.824219 150.988281 C 258.425781 144.246094 261.125 136.011719 267.878906 132.621094 C 274.632812 129.210938 282.855469 131.929688 286.269531 138.675781 C 289.65625 145.417969 286.9375 153.652344 280.191406 157.042969 M 206.242188 98.789062 C 205.808594 106.324219 199.339844 112.109375 191.785156 111.675781 C 184.242188 111.242188 178.476562 104.777344 178.90625 97.234375 C 179.339844 89.683594 185.792969 83.917969 193.332031 84.34375 C 200.886719 84.773438 206.664062 91.238281 206.242188 98.789062 M 67.867188 109.199219 C 72.296875 112.089844 73.519531 118.039062 70.625 122.460938 C 69.234375 124.585938 67.054688 126.070312 64.566406 126.585938 C 62.078125 127.105469 59.488281 126.609375 57.367188 125.210938 C 52.949219 122.3125 51.707031 116.363281 54.613281 111.949219 C 57.515625 107.535156 63.445312 106.285156 67.867188 109.199219 M 58.640625 258.8125 C 60.910156 257.664062 63.539062 257.46875 65.953125 258.265625 C 68.367188 259.058594 70.363281 260.785156 71.503906 263.054688 C 73.882812 267.78125 71.980469 273.542969 67.253906 275.925781 C 62.535156 278.296875 56.78125 276.410156 54.398438 271.6875 C 52.027344 266.96875 53.921875 261.195312 58.640625 258.8125 M 182.566406 341.617188 C 182.707031 339.082031 183.847656 336.703125 185.742188 335.011719 C 187.636719 333.320312 190.128906 332.449219 192.664062 332.597656 C 197.945312 332.894531 201.984375 337.421875 201.679688 342.703125 C 201.542969 345.238281 200.402344 347.617188 198.503906 349.3125 C 196.609375 351.003906 194.117188 351.875 191.582031 351.726562 C 189.042969 351.585938 186.667969 350.441406 184.976562 348.542969 C 183.285156 346.644531 182.417969 344.152344 182.566406 341.617188 M 317.667969 274.800781 C 313.25 271.894531 312.015625 265.964844 314.910156 261.539062 C 317.816406 257.125 323.75 255.875 328.175781 258.78125 C 332.585938 261.6875 333.820312 267.617188 330.929688 272.042969 C 329.539062 274.167969 327.355469 275.652344 324.871094 276.171875 C 322.382812 276.6875 319.789062 276.195312 317.667969 274.800781 M 326.910156 125.195312 C 322.179688 127.566406 316.421875 125.664062 314.039062 120.9375 C 312.894531 118.667969 312.703125 116.039062 313.5 113.628906 C 314.296875 111.21875 316.019531 109.222656 318.285156 108.082031 C 323.007812 105.703125 328.761719 107.597656 331.144531 112.320312 C 333.519531 117.050781 331.621094 122.8125 326.910156 125.195312 M 202.011719 42.382812 C 201.710938 47.664062 197.1875 51.703125 191.902344 51.40625 C 186.621094 51.105469 182.582031 46.582031 182.878906 41.296875 C 183.1875 36.003906 187.703125 31.964844 192.988281 32.273438 C 198.273438 32.570312 202.3125 37.097656 202.011719 42.382812 "/>
    </symbol>
    <symbol xmlns="http://www.w3.org/2000/svg" xmlns:xlink="http://www.w3.org/1999/xlink" viewBox="0 0 384 384" id="coin-DOGE">
        <path fill="#1e4151" d="M 167.878906 -0.0898438 L 57.613281 -0.0898438 L 57.613281 170.722656 L 12.328125 170.722656 L 12.328125 212.558594 L 57.613281 212.558594 L 57.613281 383.371094 L 186.09375 383.371094 C 186.09375 383.371094 366.746094 398.503906 366.746094 194.839844 C 366.746094 -5.507812 193.96875 -0.0898438 167.878906 -0.0898438 Z M 183.140625 312.488281 L 129.976562 312.488281 L 129.976562 212.558594 L 209.71875 212.558594 L 209.71875 170.722656 L 129.976562 170.722656 L 129.976562 70.792969 L 180.675781 70.792969 C 199.628906 70.792969 295 78.421875 295.144531 196.222656 C 295.292969 314.027344 196.796875 312.488281 183.140625 312.488281 Z M 183.140625 312.488281 "/>
    </symbol>
    <symbol xmlns="http://www.w3.org/2000/svg" xmlns:xlink="http://www.w3.org/1999/xlink" viewBox="0 0 384 384" id="coin-LTC">
        <path fill="#313131" d="M 160.226562 311.503906 L 181.84375 208.59375 L 291.085938 133.703125 L 303.890625 72.542969 L 194.628906 147.738281 L 225.660156 0 L 141.738281 0 L 96.664062 215.15625 L 50.707031 246.785156 L 40.035156 305.816406 L 83.972656 275.695312 L 61.375 383.566406 L 330.203125 383.566406 L 345.136719 311.503906 Z M 160.226562 311.503906 "/>
    </symbol>
</svg>