<?xml version="1.0" standalone="no"?>
<!DOCTYPE svg PUBLIC "-//W3C//DTD SVG 20010904//EN"
 "http://www.w3.org/TR/2001/REC-SVG-20010904/DTD/svg10.dtd">
<svg version="1.0" xmlns="http://www.w3.org/2000/svg"
 width="1024.000000pt" height="1024.000000pt" viewBox="0 0 1024.000000 1024.000000"
 preserveAspectRatio="xMidYMid meet">
<metadata>
Created by potrace 1.14, written by Peter Selinger 2001-2017
</metadata>
<g transform="translate(0.000000,1024.000000) scale(0.100000,-0.100000)"
fill="#000000" stroke="none">
<path d="M3730 10220 c-30 -11 -56 -25 -58 -30 -2 -6 -9 -10 -16 -10 -17 0
-81 -75 -101 -117 -15 -32 -72 -213 -80 -254 -2 -11 -7 -24 -10 -29 -4 -6 -8
-23 -11 -38 -3 -15 -11 -44 -19 -65 -8 -20 -15 -39 -15 -42 0 -3 -3 -10 -5
-17 -3 -7 -16 -56 -31 -108 -14 -52 -32 -115 -39 -140 -7 -25 -28 -94 -45
-155 -17 -60 -34 -117 -37 -125 -4 -8 -7 -17 -7 -20 -1 -3 -7 -23 -13 -45 -7
-22 -26 -87 -43 -145 -17 -58 -42 -141 -55 -185 -13 -44 -26 -89 -28 -100 -2
-11 -7 -27 -10 -35 -8 -20 -106 -357 -111 -378 -1 -9 -6 -24 -9 -32 -3 -8 -18
-55 -32 -105 -38 -126 -71 -241 -90 -305 -9 -30 -32 -109 -52 -175 -19 -66
-36 -128 -38 -137 -2 -9 -9 -26 -15 -37 -6 -12 -9 -21 -6 -21 2 0 -5 -28 -16
-62 -11 -35 -22 -74 -24 -87 -3 -13 -9 -31 -13 -40 -5 -9 -9 -19 -10 -23 -1
-5 -2 -10 -2 -13 -1 -3 -2 -8 -3 -12 -2 -10 -22 -75 -98 -333 -33 -113 -61
-209 -62 -215 -1 -5 -7 -26 -13 -45 -19 -60 -65 -213 -68 -224 -6 -30 -18 -72
-24 -81 -3 -5 -6 -14 -7 -20 -2 -11 -42 -162 -49 -183 -3 -7 -5 -14 -5 -17 0
-3 -8 -24 -16 -47 -9 -24 -18 -54 -20 -68 -3 -14 -7 -32 -11 -40 -8 -18 -7
-15 -22 -70 -7 -25 -30 -104 -52 -177 -21 -72 -40 -139 -42 -150 -2 -10 -7
-25 -10 -33 -15 -38 -37 -112 -37 -125 0 -7 -5 -26 -12 -42 -6 -15 -12 -33
-14 -40 -1 -7 -12 -45 -24 -85 -12 -40 -33 -111 -47 -158 -14 -47 -31 -105
-39 -130 -75 -242 -88 -298 -88 -375 0 -65 4 -90 24 -130 28 -57 96 -128 143
-149 61 -26 72 -29 140 -32 38 -1 71 -5 74 -7 2 -3 16 -2 31 2 14 4 45 4 69 1
24 -4 43 -4 43 -1 0 7 169 5 176 -2 3 -3 17 -2 32 2 14 4 45 4 69 1 24 -4 43
-4 43 -1 0 3 48 5 107 4 141 -3 179 -3 231 0 23 1 42 -2 42 -6 0 -5 4 -5 10
-2 9 6 94 9 115 5 6 -1 15 -1 20 0 13 2 87 2 100 0 6 -1 15 -1 20 0 24 5 206
1 215 -5 5 -3 10 -3 10 2 0 4 26 7 57 5 32 -1 63 -3 68 -3 6 0 42 0 80 0 39 0
79 1 90 1 24 1 23 1 105 1 36 0 100 -1 143 -1 42 0 83 -1 90 -1 6 -1 17 0 22
1 6 1 25 2 43 1 24 -1 31 -5 25 -13 -4 -7 -8 -17 -10 -23 -7 -36 -12 -53 -21
-75 -5 -14 -10 -29 -11 -35 0 -5 -9 -37 -20 -70 -10 -33 -31 -100 -46 -150
-15 -49 -41 -132 -57 -184 -17 -51 -31 -98 -32 -105 -1 -6 -5 -17 -9 -24 -5
-6 -6 -12 -2 -12 3 0 1 -9 -5 -21 -6 -11 -13 -28 -15 -38 -2 -10 -22 -78 -45
-152 -23 -74 -43 -142 -45 -152 -2 -9 -7 -22 -10 -27 -5 -9 -8 -19 -18 -65 -2
-5 -6 -15 -9 -21 -4 -6 -9 -21 -12 -35 -2 -13 -17 -62 -31 -109 -15 -47 -35
-112 -45 -145 -10 -33 -37 -121 -60 -195 -23 -74 -46 -151 -52 -170 -5 -19
-15 -53 -23 -75 -7 -22 -25 -78 -39 -125 -36 -120 -97 -320 -152 -495 -25 -82
-52 -170 -59 -195 -7 -25 -27 -90 -45 -145 -17 -55 -32 -104 -33 -110 -2 -5
-6 -16 -10 -22 -5 -7 -6 -13 -3 -13 3 0 -2 -19 -10 -42 -9 -24 -28 -86 -44
-138 -15 -52 -45 -149 -65 -215 -20 -66 -38 -127 -40 -135 -2 -8 -9 -28 -15
-45 -6 -16 -13 -37 -15 -45 -2 -8 -14 -46 -26 -85 -60 -187 1 -348 161 -424
45 -21 69 -26 135 -26 68 0 88 4 135 28 54 28 110 79 160 147 40 53 74 95 83
98 4 2 7 8 7 13 0 7 34 53 155 204 13 17 64 82 112 145 153 197 524 674 542
695 9 11 30 38 46 60 17 22 35 45 40 52 21 26 33 41 110 143 44 57 88 114 98
125 10 11 79 99 153 195 74 96 145 189 158 205 13 17 54 68 90 115 37 47 72
92 79 100 7 9 25 33 42 55 16 22 35 47 42 55 7 8 50 65 97 125 47 61 89 115
94 121 5 5 25 31 44 56 19 25 40 52 46 59 23 27 77 97 96 123 11 15 28 37 38
49 26 32 29 36 83 107 27 36 52 67 55 70 3 3 17 21 32 42 15 20 33 42 40 50 7
8 18 21 23 30 19 30 219 283 227 286 4 2 8 10 8 17 0 7 4 15 8 17 7 3 129 156
272 342 90 118 280 362 350 451 36 45 75 95 87 111 61 80 367 472 384 492 10
12 19 26 19 31 0 5 3 11 8 13 6 2 72 83 150 185 9 12 34 43 54 70 277 356 351
452 398 514 30 40 62 79 70 88 9 9 25 39 37 66 30 69 28 200 -5 263 -53 101
-149 169 -253 178 -30 3 -59 7 -66 9 -7 2 -15 0 -18 -6 -4 -6 -13 -6 -23 0 -9
5 -26 5 -38 1 -12 -5 -25 -6 -28 -3 -7 8 -196 6 -203 -1 -3 -3 -16 -1 -29 4
-14 6 -26 6 -29 0 -3 -6 -15 -6 -30 0 -15 6 -27 6 -30 -1 -4 -5 -11 -6 -17 -3
-13 8 -1293 8 -1306 0 -6 -3 -13 -2 -17 3 -3 7 -15 7 -30 1 -15 -6 -27 -6 -30
0 -3 6 -15 6 -30 0 -15 -6 -27 -6 -30 0 -3 6 -15 6 -30 0 -15 -6 -27 -6 -30 0
-3 6 -15 6 -30 0 -15 -6 -27 -6 -30 0 -3 6 -15 6 -30 0 -15 -6 -27 -6 -30 0
-3 6 -15 6 -30 0 -15 -6 -27 -6 -30 0 -3 6 -15 6 -30 0 -15 -6 -27 -6 -30 0
-3 6 -15 6 -30 0 -15 -6 -27 -6 -30 0 -3 6 -15 6 -30 0 -15 -6 -27 -6 -30 0
-3 6 -15 6 -30 0 -15 -6 -27 -6 -30 0 -3 5 -12 7 -20 3 -20 -7 -19 1 14 100
17 48 28 87 25 87 -2 0 4 12 13 27 10 15 17 28 15 30 -3 4 9 55 17 68 3 6 6
15 7 20 1 6 25 78 54 160 28 83 53 157 55 165 2 8 20 65 40 125 38 114 42 127
44 135 0 3 17 50 37 105 19 55 37 107 39 115 4 17 73 228 82 250 4 8 7 17 8
20 8 27 67 209 72 220 3 8 7 17 8 20 0 3 12 37 25 75 13 39 25 75 26 80 2 10
121 367 131 395 3 8 7 20 9 25 4 18 142 430 157 471 20 56 48 141 51 156 2 7
6 22 10 33 11 28 16 45 14 48 -1 1 4 12 11 25 7 13 14 31 16 40 2 9 24 80 50
157 26 77 48 144 50 150 1 5 5 17 8 25 3 8 15 44 26 79 52 163 -14 325 -165
401 l-49 25 -1350 2 c-1324 2 -1351 2 -1405 -17z"/>
</g>
</svg>
